# xmcd
#
# Track frame offsets: 
#        150
#        22467
#        40939
#        61321
#        81310
#        100093
#        115297
#        136768
#        169664
#        187115
#        205578
#        231383
#
# Disc length: 3476 seconds
#
# Revision: 5
# Processed by: cddbd v1.5.2PL0 Copyright (c) Steve Scherf et al.
# Submitted via: ExactAudioCopy v0.99pb4
#
DISCID=a70d920c
DTITLE=Mavis Staples - We'll Never Turn Back
DYEAR=2007
DGENRE=Blues/ Gospel
TTITLE0=Down In Mississippi
TTITLE1=Eyes On The Prize
TTITLE2=We Shall Not Be Moved
TTITLE3=In The Mississippi River
TTITLE4=On My Way
TTITLE5=This Little Light Of Mine
TTITLE6=Ninety Nine And 1-2
TTITLE7=My Own Eyes
TTITLE8=Turn Me Around
TTITLE9=We'll Never Turn Back
TTITLE10=I'll Be Rested
TTITLE11=Jesus Is On The Main Line
EXTD=Label: Anti. Inc. - Epitaph\n6830-2\nEAN/UPC: 8714092683028
EXTT0=
EXTT1=
EXTT2=
EXTT3=
EXTT4=
EXTT5=
EXTT6=
EXTT7=
EXTT8=
EXTT9=
EXTT10=
EXTT11=
PLAYORDER=
